<?xml version="1.0" standalone="no"?><!DOCTYPE svg PUBLIC "-//W3C//DTD SVG 1.1//EN" "http://www.w3.org/Graphics/SVG/1.1/DTD/svg11.dtd"><svg t="1723266330715" class="icon" viewBox="0 0 1024 1024" version="1.1" xmlns="http://www.w3.org/2000/svg" p-id="13311" xmlns:xlink="http://www.w3.org/1999/xlink" width="200" height="200"><path d="M682.666667 375.466667v68.266666H341.333333v-68.266666h341.333334z" p-id="13312"></path><path d="M213.333333 34.133333h426.666667a34.133333 34.133333 0 0 1 24.132267 10.001067l213.333333 213.333333A34.133333 34.133333 0 0 1 887.466667 281.6v631.466667A76.8 76.8 0 0 1 810.666667 989.866667H213.333333A76.8 76.8 0 0 1 136.533333 913.066667V110.933333A76.8 76.8 0 0 1 213.333333 34.133333zM819.2 295.765333L625.834667 102.4H213.333333a8.533333 8.533333 0 0 0-8.533333 8.533333v802.133334c0 4.7104 3.822933 8.533333 8.533333 8.533333h597.333334a8.533333 8.533333 0 0 0 8.533333-8.533333V295.765333zM944.298667 168.379733L896 216.6784l-149.128533-149.162667L795.136 19.2512l149.162667 149.162667z" p-id="13313"></path><path d="M682.666667 580.266667v68.266666H341.333333v-68.266666h341.333334z" p-id="13314"></path></svg>