<?xml version="1.0" standalone="no"?><!DOCTYPE svg PUBLIC "-//W3C//DTD SVG 1.1//EN" "http://www.w3.org/Graphics/SVG/1.1/DTD/svg11.dtd"><svg t="1723261451587" class="icon" viewBox="0 0 1024 1024" version="1.1" xmlns="http://www.w3.org/2000/svg" p-id="11062" xmlns:xlink="http://www.w3.org/1999/xlink" width="200" height="200"><path d="M952.5 446.6a28.22 28.22 0 0 0-15.24-48.28L684 359.3a28.24 28.24 0 0 1-21.12-15.64L551.38 112.88a28.24 28.24 0 0 0-50.64-0.44l-115.38 228.86a28.22 28.22 0 0 1-21.4 15.26L110 391.24a28.24 28.24 0 0 0-16 48l182 180.46a28.18 28.18 0 0 1 8 25.06l-45.62 252.26a28.26 28.26 0 0 0 40.72 30.12l227.86-117.32a28.2 28.2 0 0 1 26.28 0.22l225.82 121.2a28.24 28.24 0 0 0 41.22-29.42l-41.16-252.96a28.22 28.22 0 0 1 8.34-24.86z m-436.74-86.3l-44.82 88.9a51.2 51.2 0 0 1-38.8 27.7L314 493.04a26.88 26.88 0 0 1-3.56 0.26 26 26 0 0 1-3.48-51.78l117.82-16 44.64-88.54a26 26 0 1 1 46.42 23.4z" fill="#1296db" p-id="11063"></path></svg>