<?xml version="1.0" standalone="no"?><!DOCTYPE svg PUBLIC "-//W3C//DTD SVG 1.1//EN" "http://www.w3.org/Graphics/SVG/1.1/DTD/svg11.dtd"><svg t="1723129878743" class="icon" viewBox="0 0 1024 1024" version="1.1" xmlns="http://www.w3.org/2000/svg" p-id="6902" xmlns:xlink="http://www.w3.org/1999/xlink" width="200" height="200"><path d="M819.2 631.466667c30.72 0 61.44 6.826667 88.746667 20.48L1024 78.506667c0-27.306667 0-44.373333-17.066667-54.613334-13.653333-10.24-34.133333-10.24-47.786666 0L27.306667 488.106667c-17.066667 0-27.306667 17.066667-27.306667 37.546666 0 17.066667 10.24 37.546667 17.066667 37.546667l225.28 136.533333c17.066667 10.24 44.373333 6.826667 58.026666-10.24l494.933334-443.733333 17.066666 10.24-450.56 471.04c-6.826667 6.826667-10.24 17.066667-10.24 27.306667v204.8c0 20.48 10.24 37.546667 27.306667 47.786666 17.066667 6.826667 34.133333 3.413333 47.786667-10.24l112.64-112.64 119.466666 78.506667c-27.306667-34.133333-44.373333-78.506667-44.373333-126.293333 0-116.053333 92.16-204.8 204.8-204.8z" p-id="6903" fill="#1296db"></path><path d="M819.2 665.6c-95.573333 0-170.666667 75.093333-170.666667 170.666667s75.093333 170.666667 170.666667 170.666666 170.666667-75.093333 170.666667-170.666666-75.093333-170.666667-170.666667-170.666667z m105.813333 119.466667l-119.466666 119.466666c-3.413333 3.413333-6.826667 3.413333-13.653334 3.413334-3.413333 0-10.24-3.413333-13.653333-3.413334l-68.266667-68.266666c-3.413333-3.413333-3.413333-6.826667-3.413333-10.24 0-10.24 6.826667-17.066667 17.066667-17.066667 3.413333 0 6.826667 0 10.24 3.413333l58.026666 58.026667 109.226667-109.226667c3.413333-3.413333 6.826667-6.826667 13.653333-6.826666 10.24 0 17.066667 6.826667 17.066667 17.066666 0 6.826667-3.413333 13.653333-6.826667 13.653334z" p-id="6904" fill="#1296db"></path></svg>