<?xml version="1.0" standalone="no"?><!DOCTYPE svg PUBLIC "-//W3C//DTD SVG 1.1//EN" "http://www.w3.org/Graphics/SVG/1.1/DTD/svg11.dtd"><svg t="1727523578607" class="icon" viewBox="0 0 1024 1024" version="1.1" xmlns="http://www.w3.org/2000/svg" p-id="3233" xmlns:xlink="http://www.w3.org/1999/xlink" width="200" height="200"><path d="M511.45 159C318 159 161.16 315.83 161.16 509.29S318 859.58 511.45 859.58s350.29-156.83 350.29-350.29S704.91 159 511.45 159z m192.13 189.45l-81.4 211.63a105.05 105.05 0 0 1-60.3 60.3l-210.59 81c-20 7.69-39.62-12-31.93-31.93l80.78-210a106.41 106.41 0 0 1 61.1-61.11l211-81.18c19.63-7.54 38.88 11.71 31.34 31.29zM511.45 453.76A55.53 55.53 0 1 0 567 509.29a55.53 55.53 0 0 0-55.55-55.53z" fill="#409EFF" p-id="3234"></path></svg>