<?xml version="1.0" standalone="no"?><!DOCTYPE svg PUBLIC "-//W3C//DTD SVG 1.1//EN" "http://www.w3.org/Graphics/SVG/1.1/DTD/svg11.dtd"><svg t="1729502166535" class="icon" viewBox="0 0 1126 1024" version="1.1" xmlns="http://www.w3.org/2000/svg" p-id="12174" xmlns:xlink="http://www.w3.org/1999/xlink" width="219.921875" height="200"><path d="M51.302246 500.990497H50.227049A509.643271 509.643271 0 0 1 127.948416 241.663275 510.564868 510.564868 0 0 1 460.952217 11.110367l100.556498 499.300902 1.433596 1.535995-1.023997 0.563198 0.0512 0.256h-0.409599L122.674832 773.117681a509.643271 509.643271 0 0 1-71.372586-272.127184zM563.19831 511.998464l511.998464 2.815992v1.331196a509.84807 509.84807 0 0 1-114.124457 318.053445 509.95047 509.95047 0 0 1-177.407468 140.03158A509.95047 509.95047 0 0 1 563.19831 1023.996928c-120.831638 0-231.935304-41.881474-319.487041-111.922864L563.19831 511.998464z m326.194222-394.955615a517.579247 517.579247 0 0 1 72.089384 72.703782l-274.687176 274.687176L614.398157 392.037224l274.994375-274.994375zM748.900153 41.932674l72.396583 72.447783-144.844365 144.793165-72.396583-72.396582L748.900153 41.932674zM963.990708 255.999232l72.447783 72.396583-144.844366 144.844365L819.197542 400.792398 963.990708 255.999232z" p-id="12175" fill="#2c2c2c"></path></svg>