<?xml version="1.0" standalone="no"?><!DOCTYPE svg PUBLIC "-//W3C//DTD SVG 1.1//EN" "http://www.w3.org/Graphics/SVG/1.1/DTD/svg11.dtd"><svg t="1723203557871" class="icon" viewBox="0 0 1025 1024" version="1.1" xmlns="http://www.w3.org/2000/svg" p-id="2676" xmlns:xlink="http://www.w3.org/1999/xlink" width="200.1953125" height="200"><path d="M512.377079 72.38656l109.70112 335.01184 352.512 0.8192-284.69248 207.872 108.14464 335.52384L512.377079 745.08288 226.701559 951.61344l108.15488-335.52384-284.70272-207.872 352.512-0.8192L512.377079 72.38656M512.377079 22.24128c-21.68832 0-40.91904 13.93664-47.6672 34.54976l-98.43712 300.55424L50.030839 358.07232c-21.67808 0.04096-40.87808 14.03904-47.57504 34.64192-6.69696 20.6336 0.6144 43.2128 18.13504 56.0128l255.41632 186.48064-97.024 301.01504c-6.656 20.64384 0.70656 43.22304 18.24768 55.9616 8.78592 6.38976 19.12832 9.58464 29.47072 9.58464 10.31168 0 20.61312-3.16416 29.3888-9.51296l256.29696-185.2928 256.27648 185.2928c8.76544 6.33856 19.07712 9.51296 29.3888 9.51296 10.3424 0 20.6848-3.19488 29.47072-9.58464 17.54112-12.73856 24.91392-35.31776 18.24768-55.9616l-97.01376-301.01504 255.40608-186.48064c17.50016-12.8 24.82176-35.3792 18.1248-56.0128-6.69696-20.61312-25.89696-34.60096-47.57504-34.64192l-316.25216-0.73728L560.023799 56.7808C553.275639 36.17792 534.065399 22.24128 512.377079 22.24128L512.377079 22.24128z" p-id="2677"></path></svg>