<?xml version="1.0" standalone="no"?><!DOCTYPE svg PUBLIC "-//W3C//DTD SVG 1.1//EN" "http://www.w3.org/Graphics/SVG/1.1/DTD/svg11.dtd"><svg t="1724178746911" class="icon" viewBox="0 0 1228 1024" version="1.1" xmlns="http://www.w3.org/2000/svg" p-id="2373" xmlns:xlink="http://www.w3.org/1999/xlink" width="239.84375" height="200"><path d="M1178.624 71.9872c15.8208 15.872 24.6272 37.3248 24.576 59.6992v295.7824c-22.3744 0-46.08 1.536-61.7984-14.336-15.8208-15.872-22.3744-34.9696-22.3232-57.344V287.5392l-469.504 227.328c-23.04 11.1104-49.92 11.1104-72.96 0L109.6704 288.768v603.4944h444.4672c46.0288 0.1024 60.2624 37.12 60.928 83.1488v1.3824h-505.344A84.2752 84.2752 0 0 1 25.6 892.3648V131.6352A84.3264 84.3264 0 0 1 109.7216 47.2064h1009.3568c22.3744 0 43.776 8.9088 59.5968 24.7808zM1038.6944 480.768c31.4368 11.52 60.2112 28.7232 85.1456 50.432l6.3488 104.8064 85.504 58.112c5.9392 33.28 5.9392 67.3792 0 100.7104l-85.504 58.0096-6.3488 104.8576a271.6672 271.6672 0 0 1-85.1456 50.432l-91.904-46.848-91.904 46.848a271.5648 271.5648 0 0 1-85.1968-50.432l-6.2976-104.8576-85.5552-58.0096a288.1536 288.1536 0 0 1 0-100.7104l85.504-58.112 6.4-104.8064a271.5648 271.5648 0 0 1 85.1456-50.432l91.904 46.848 91.904-46.848z m1.8944 90.2144l-73.472 37.4784a44.7488 44.7488 0 0 1-40.6528 0l-73.5232-37.4784-0.3072 0.2048-3.584 2.048-2.048 1.28-5.12 83.968a46.9504 46.9504 0 0 1-20.224 35.9424l-73.5744 50.0224 73.5232 50.0224a46.8992 46.8992 0 0 1 20.3264 35.9424l5.0176 83.968 0.3584 0.256 5.2736 3.072 0.3584 0.2048 73.5232-37.4784a44.7488 44.7488 0 0 1 40.6528 0l73.472 37.4784 0.3584-0.1536 5.2736-3.1232 0.3072-0.256 5.12-83.9168a46.7968 46.7968 0 0 1 20.3264-35.9936l68.4032-46.4384v-7.1168l-68.4032-46.4384a46.8992 46.8992 0 0 1-20.3264-35.9936l-5.0688-83.968-0.3584-0.2048a192.2048 192.2048 0 0 0-5.2736-3.072l-0.3584-0.256z m78.5408-439.296H109.7728v63.3344l503.3472 243.6608 505.9584-244.9408V131.6864z" fill="#ffffff" p-id="2374"></path><path d="M1013.6576 744.448c0 37.1712-30.0032 67.2768-66.9184 67.2768a67.072 67.072 0 0 1-66.9696-67.2768c0-37.1712 30.0032-67.328 66.9696-67.328 36.9664 0 66.9184 30.1568 66.9184 67.328z" fill="#ffffff" p-id="2375"></path></svg>