<?xml version="1.0" standalone="no"?><!DOCTYPE svg PUBLIC "-//W3C//DTD SVG 1.1//EN" "http://www.w3.org/Graphics/SVG/1.1/DTD/svg11.dtd"><svg t="1723129725482" class="icon" viewBox="0 0 1024 1024" version="1.1" xmlns="http://www.w3.org/2000/svg" p-id="5892" xmlns:xlink="http://www.w3.org/1999/xlink" width="200" height="200"><path d="M946.672 110.485c0-0.043-0.003-0.085-0.003-0.13a29.858 29.858 0 0 0-0.105-2.472c-0.018-0.236-0.044-0.47-0.067-0.705a29.857 29.857 0 0 0-0.286-2.057c-0.033-0.191-0.058-0.382-0.095-0.572a30.726 30.726 0 0 0-0.579-2.437c-0.07-0.248-0.153-0.492-0.23-0.737a29.942 29.942 0 0 0-0.582-1.706c-0.112-0.295-0.222-0.59-0.342-0.884a30.143 30.143 0 0 0-0.945-2.079c-0.135-0.268-0.287-0.527-0.43-0.793a30.678 30.678 0 0 0-1.442-2.396 29.652 29.652 0 0 0-1.185-1.645c-0.129-0.167-0.248-0.336-0.38-0.5a29.565 29.565 0 0 0-2.198-2.42 29.452 29.452 0 0 0-1.761-1.628c-0.07-0.061-0.132-0.128-0.204-0.187-0.02-0.019-0.043-0.033-0.064-0.05a29.815 29.815 0 0 0-1.777-1.37c-0.123-0.087-0.252-0.163-0.376-0.248-0.221-0.152-0.445-0.294-0.668-0.442-0.554-0.36-1.117-0.699-1.69-1.02-0.235-0.133-0.467-0.273-0.705-0.398-0.723-0.38-1.46-0.728-2.206-1.047-0.29-0.125-0.587-0.234-0.883-0.348a29.576 29.576 0 0 0-1.584-0.568c-0.316-0.103-0.63-0.208-0.948-0.3a30.31 30.31 0 0 0-2.323-0.584c-0.22-0.045-0.44-0.073-0.66-0.113a29.561 29.561 0 0 0-2.772-0.377 30.173 30.173 0 0 0-2.173-0.116c-0.126-0.002-0.252-0.013-0.379-0.013a30.616 30.616 0 0 0-2.565 0.108c-0.219 0.018-0.436 0.045-0.654 0.067-0.685 0.07-1.368 0.167-2.05 0.284-0.205 0.036-0.41 0.066-0.615 0.105-0.832 0.163-1.66 0.356-2.48 0.59-0.193 0.055-0.382 0.124-0.574 0.182a30.47 30.47 0 0 0-2.737 0.983c-0.555 0.231-1.102 0.126-1.646 0.392-0.245 0.12-0.496-0.005-0.74-0.005L93.52 505.909c-10.017 5.235-16.266 15.812-16.187 27.114 0.08 11.3 6.474 21.699 16.563 26.791l217.27 109.707c14.863 7.507 32.998 1.56 40.5-13.308 7.502-14.863 1.535-32.986-13.33-40.487L173.472 532.52l623.153-325.577-384.13 460.475a30.147 30.147 0 0 0-6.998 19.314v230.244c0 16.65 13.497 30.15 30.148 30.15 16.652 0 30.15-13.498 30.15-30.15v-219.32l405.212-485.74-92.305 623.733-217.41-107.905c-14.914-7.4-33.007-1.31-40.409 13.604-7.403 14.915-1.313 33.007 13.602 40.41l254.567 126.346a30.146 30.146 0 0 0 27.368-0.286 30.15 30.15 0 0 0 15.86-22.305l114.068-770.809c0.04-0.273 0.06-0.547 0.092-0.82 0.035-0.288 0.07-0.574 0.096-0.862 0.077-0.849 0.13-1.695 0.135-2.537z" fill="" p-id="5893"></path></svg>