<?xml version="1.0" standalone="no"?><!DOCTYPE svg PUBLIC "-//W3C//DTD SVG 1.1//EN" "http://www.w3.org/Graphics/SVG/1.1/DTD/svg11.dtd"><svg t="1724234997190" class="icon" viewBox="0 0 1024 1024" version="1.1" xmlns="http://www.w3.org/2000/svg" p-id="2350" xmlns:xlink="http://www.w3.org/1999/xlink" width="200" height="200"><path d="M955.5828 746.560353a190.913341 190.913341 0 0 0-29.760352-64.510871l33.395722-55.704697-29.557134-29.602293-57.646571 34.637618a186.871533 186.871533 0 0 0-60.694862-24.070209l-16.618831-66.520485h-41.750298l-16.641411 66.520485a184.47806 184.47806 0 0 0-60.220684 24.363748l-58.120749-34.908577-29.534554 29.602293 33.508622 55.953076a189.513385 189.513385 0 0 0-30.008732 64.330232l-59.407806 14.857596v41.840617l55.162778 13.79634a188.181169 188.181169 0 0 0 27.999118 75.755678l-27.27656 45.566307 29.534554 29.624873 43.511532-26.147564c23.144432 17.386549 50.082293 30.008732 79.752326 35.202117l11.741566 46.898523h41.750298l11.764145-46.943683a187.63925 187.63925 0 0 0 79.616847-35.202116l43.579272 26.192723 29.557134-29.624873-27.52494-45.927586c14.293098-22.444454 24.566968-47.75656 28.270078-75.394399l55.140198-13.79634v-41.840617l-59.520706-14.947916z m-181.745887 149.885601a104.545094 104.545094 0 0 1-104.477354-104.612834 104.545094 104.545094 0 0 1 104.477354-104.590253 104.545094 104.545094 0 0 1 104.454774 104.590253 104.567674 104.567674 0 0 1-104.454774 104.612834z m-185.245777-324.992988c-33.621521-24.612128-71.984829-43.014774-113.238369-55.162779 81.039383-39.018126 137.398897-121.141345 137.398898-217.083484 0-133.424829-108.135303-241.582712-241.537553-241.582712S129.6314 165.781874 129.6314 299.206703c0 95.49054 55.930496 177.275061 136.382801 216.518986C117.212437 559.575921 8.851334 693.836207 8.851334 852.798942c0 0 185.290937 50.330673 368.481941 50.330672 47.304961 0 94.316384-3.52247 138.076295-8.715854a280.126659 280.126659 0 0 1-23.415391-112.064212c0.02258-84.381213 37.866549-159.256273 96.596957-210.896582z" fill="#ffffff" p-id="2351"></path></svg>