<?xml version="1.0" standalone="no"?><!DOCTYPE svg PUBLIC "-//W3C//DTD SVG 1.1//EN" "http://www.w3.org/Graphics/SVG/1.1/DTD/svg11.dtd"><svg t="1724599392368" class="icon" viewBox="0 0 1756 1024" version="1.1" xmlns="http://www.w3.org/2000/svg" p-id="2374" xmlns:xlink="http://www.w3.org/1999/xlink" width="342.96875" height="200"><path d="M393.05284741 835.79174789c22.12094723-24.41922726 45.10374889-47.97660009 66.6501265-73.25768176 40.50718889-47.68931529 80.72709296-95.95320018 120.37242745-144.50436989 8.04398081-9.76769122 14.36425123-21.54637763 20.39723686-32.75049286 15.51339202-28.72850246 12.64054083-54.29687052-13.78968163-74.11953774-24.70651205-18.67352644-52.57316011-32.75049286-79.86523855-47.40203049-30.16492806-16.37524641-61.19171054-31.31406884-91.93120978-46.8274593 0.2872848-0.86185441 0.2872848-2.0109952 0.5745696-2.87284962 8.33126561 1.72371041 16.66253125 3.4474208 24.70651206 5.45841599 59.4680017 15.22610722 119.22328666 29.01578727 180.41499876 34.76148808 49.70031051 4.59656001 98.53876499 1.72371041 146.22808027-13.215112 42.2308993-13.21511201 75.84324814-39.64533447 107.44460023-69.52297773 5.17113119-4.88384483 9.19312161-11.20411682 12.35325603-17.52438722 18.09895683-35.91062886 5.17113119-69.23569135-32.46320808-83.59994415-13.50239682-5.17113119-27.86664805-8.04398081-40.50718888-14.65153608-10.62954563-5.45841601-22.40823205-12.92782564-28.15393284-22.69551682-10.62954563-18.09895683-25.85565284-26.43022245-44.81646411-29.30307365-16.08796163-2.58556481-32.17592326-4.0219904-48.55116971-5.45841601-25.28108324-2.29828-49.12573933-8.61855044-68.08655211-26.71750724-21.25909283-20.10995203-48.55116971-20.97180645-74.98139216-24.70651208-61.19171054-8.90583522-121.52156667-21.25909283-180.12771395-41.65632966-5.7457008-2.0109952-11.49140161-4.59656001-16.94981604-6.60755524 0-1.14914079 0.2872848-2.29828 0.28728479-3.44742078 4.88384483 0 9.76769122-0.2872848 14.36425124 0 127.55455226 9.76769122 254.82182129 19.53538242 382.37637357 29.59035846 65.78827212 5.17113119 131.57654269 11.49140161 197.36481477 18.09895683 19.53538242 2.0109952 38.78347849 6.60755523 57.74429132 10.62954563 47.40203047 10.34226081 85.03636818 35.33605926 114.33944183 74.11953772 16.37524641 21.83366244 17.52438722 20.68452165 41.08175851 6.89484004 22.98280165-13.78968163 45.67832007-28.44121767 73.25768174-31.88863846 7.4694112-0.86185441 15.51339202-2.0109952 22.69551684-0.28728481 21.83366244 5.17113119 43.38004006 12.06597121 66.07555692 1.4364256 0.2872848 1.14914079 0.5745696 2.0109952 0.86185442 3.16013599-1.14914079 2.87284962-2.0109952 5.7457008-3.4474208 8.33126564-8.61855044 13.21511201-13.21511201 27.57936323-12.35325602 43.38004005 1.14914079 19.82266724-6.03298562 37.92162409-19.24809762 51.13673452-36.19791367 36.19791367-49.41302567 80.72709296-56.59515051 129.85283385-7.18212641 49.70031051-22.40823205 97.3896242-59.46800171 134.44939386-17.23710243 17.23710243-35.33605926 33.89963365-54.0095857 49.4130257-118.36143223 99.11333461-228.10431247 207.41979082-336.69805348 316.58810143-12.92782564 12.92782564-25.56836803 25.85565284-38.49619368 38.49619367-3.4474208 3.4474208-7.75669602 6.32027041-11.77868643 9.19312161-1.43642559-0.86185441-3.16013599-1.43642559-4.59656003-2.29828001 1.43642559-6.60755523 1.43642559-14.65153604 4.88384484-20.10995202 10.91683043-16.94981604 22.12094723-33.61234886 34.76148809-48.83845453 17.81167203-21.25909283 36.77248327-41.65632967 56.30786569-61.4789969 20.68452165-21.25909283 31.88863846-44.52917929 26.43022246-74.98139216-3.4474208-18.38624165 6.03298562-32.17592326 18.96081126-44.24189447 11.20411682-10.62954563 21.83366244-21.25909283 32.17592328-32.46320807 9.19312161-9.76769122 12.06597121-22.12094723 8.9058352-34.76148809-4.3092752-16.94981604 1.43642559-31.02678247 10.91683045-44.24189448 11.49140161-15.80067682 23.84465763-31.02678247 34.76148807-47.40203048 16.37524641-24.99379687 6.03298562-43.66732487-24.13194244-44.52917929-36.77248327-1.14914079-72.10854253 7.18212641-106.58274582 19.82266723-56.30786571 20.68452165-106.295461 52.86044491-154.2720611 87.62193455-87.62193456 63.20270574-174.66929794 127.55455226-262.00394612 191.33182917-3.73470561 2.87284962-7.75669602 5.17113119-11.77868643 7.75669602C394.20198817 837.51545828 393.62741858 836.65360385 393.05284741 835.79174789z" fill="#ffffff" p-id="2375"></path><path d="M659.11389808-44.73686666c18.38624165-9.19312161 34.47420326-18.09895683 51.42402089-25.56836806 105.72089139-46.2528897 215.46377163-70.38483214 331.23963905-59.46800167 251.6616853 23.84465763 430.92754325 207.41979082 454.19763128 442.70622966 12.06597121 120.94699706-14.07696642 234.99915406-65.5009873 344.1674647-79.57795375 169.78545155-208.28164681 289.87059419-377.49252873 367.72483751-90.49478418 41.65632967-185.87341317 65.21370094-284.69946457 75.26867697-53.72230091 5.45841601-104.85903541-4.59656001-155.1339155-22.12094724-116.06315223-40.21990407-210.00535562-110.31745142-278.09190777-212.30363721-61.19171054-91.35663858-85.61093935-193.34282441-80.15252336-303.08570619 3.16013599-63.48999213 17.81167203-124.96898745 37.34705447-185.29884358 1.72371041-5.45841601 4.0219904-10.62954563 8.61855042-15.51339202-1.43642559 5.45841601-2.58556481 10.62954563-4.30927519 16.08796164-21.54637763 74.40682254-35.62334406 149.96278587-31.31406888 227.81702765 4.59656001 79.86523855 26.14293764 154.5593459 70.67211696 221.78404205 73.25768176 110.0301666 177.82943236 175.24386754 303.94756062 205.98336523 85.89822416 20.97180645 172.08373314 14.07696642 257.4073861-8.04398085 120.08514263-31.02678247 224.36960844-91.06935378 316.30081662-174.09472832 78.14152814-70.67211693 140.19509468-153.41020512 181.27685318-250.51254607 50.27488011-118.64871702 65.21370094-241.03213967 28.72850246-366.28841193-40.50718889-139.04595389-131.86382905-234.13729809-263.15308691-291.30701977C1081.99746052-90.70246997 999.54665717-108.80142681 913.3611482-105.92857718c-82.45080337 2.87284962-160.59233151 24.13194244-235.86100847 56.88243531-4.3092752 2.0109952-8.90583522 3.73470561-13.21511204 5.45841602C663.71045809-43.01315625 662.56131887-43.87501067 659.11389808-44.73686666z" fill="#ffffff" p-id="2376"></path></svg>